<svg width="292" height="48" viewBox="0 0 292 48" xmlns="http://www.w3.org/2000/svg" xmlns:xlink="http://www.w3.org/1999/xlink"><title>FarmaJato</title><defs><path id="a" d="M21.659 24.355V.595H.257v23.76H21.66z"/></defs><g fill="none" fill-rule="evenodd"><path d="M90.532 41.477v-27.77c0-1.175.587-1.763 1.765-1.763h14.737c.884 0 1.324.735 1.324 2.204v1.366c0 1.47-.44 2.204-1.324 2.204h-9.707v6.436h9.399c.882 0 1.324.736 1.324 2.204v1.366c0 1.47-.442 2.205-1.324 2.205h-9.399v11.548c0 .941-.882 1.412-2.648 1.412h-1.5c-1.766 0-2.647-.471-2.647-1.412M118.021 36.056c0 .588.191 1.058.574 1.41.382.353.955.53 1.721.53.765 0 1.515-.266 2.25-.794a4.854 4.854 0 0 0 1.633-1.984v-2.424c-4.118 0-6.178 1.088-6.178 3.262m-6.486.66c0-.822.073-1.571.221-2.247.146-.676.485-1.403 1.014-2.182.53-.778 1.236-1.417 2.119-1.917 2.088-1.235 5.192-1.852 9.31-1.852v-1.455c0-1.674-1.147-2.512-3.442-2.512-1.618 0-3.191.352-4.722 1.057-.528.236-.838.353-.926.353-.441 0-.935-.455-1.478-1.366-.544-.91-.816-1.631-.816-2.16 0-.794.816-1.498 2.449-2.116 1.633-.617 3.625-.926 5.978-.926 6.325 0 9.488 2.455 9.488 7.362v8.287c0 1.822.088 3.35.265 4.584l.264 1.808c0 .47-.595.823-1.787 1.057-1.191.236-2.081.353-2.67.353-.588 0-.978-.059-1.169-.176-.192-.117-.346-.316-.463-.596-.118-.278-.206-.499-.265-.66-.06-.162-.125-.448-.198-.86a8.516 8.516 0 0 0-.155-.75c-.53.941-1.441 1.735-2.736 2.381-1.294.646-2.545.97-3.75.97-2.266 0-3.92-.588-4.965-1.764-1.045-1.175-1.566-2.733-1.566-4.672M136.466 41.477V27.505c0-2.205-.088-3.747-.265-4.63-.176-.881-.264-1.41-.264-1.586 0-.47.595-.823 1.787-1.058 1.191-.235 2.081-.353 2.67-.353.588 0 .977.06 1.169.177.19.118.345.301.463.55.118.25.206.457.265.618.059.162.125.433.198.815.073.382.126.617.155.706 1.236-2.233 2.838-3.351 4.81-3.351.941 0 1.595.243 1.964.728.367.485.55 1.036.55 1.652 0 .618-.131 1.39-.396 2.315s-.588 1.389-.97 1.389c-.177 0-.486-.06-.928-.177-.44-.117-.823-.176-1.146-.176-1.472 0-2.648.735-3.53 2.204v14.15c0 .94-.883 1.41-2.649 1.41h-1.235c-1.765 0-2.648-.47-2.648-1.41M152.617 41.477V27.505c0-2.205-.089-3.747-.265-4.63-.177-.881-.265-1.41-.265-1.586 0-.47.595-.823 1.787-1.058 1.191-.235 2.08-.353 2.67-.353.588 0 .978.06 1.169.177.191.118.345.301.464.55.117.25.205.457.264.618.06.162.125.433.199.815.073.382.124.617.154.706.706-.94 1.64-1.734 2.803-2.381a7.55 7.55 0 0 1 3.727-.97c3.03 0 4.972 1.118 5.826 3.35.735-.94 1.705-1.733 2.912-2.38a8.096 8.096 0 0 1 3.883-.97c2.207 0 3.831.581 4.875 1.742 1.045 1.16 1.567 2.96 1.567 5.4v14.942c0 .941-.882 1.412-2.647 1.412h-1.235c-1.766 0-2.649-.471-2.649-1.412V27.505c0-1.822-.867-2.734-2.603-2.734-1.441 0-2.604.853-3.485 2.557v14.15c0 .94-.883 1.41-2.649 1.41h-1.234c-1.766 0-2.648-.47-2.648-1.41V27.504c0-1.822-.868-2.734-2.604-2.734-1.441 0-2.604.853-3.486 2.557v14.15c0 .94-.882 1.41-2.647 1.41h-1.236c-1.766 0-2.647-.47-2.647-1.41M195.64 36.056c0 .588.19 1.058.573 1.41.381.353.955.53 1.72.53.766 0 1.515-.266 2.251-.794a4.84 4.84 0 0 0 1.633-1.984v-2.424c-4.12 0-6.177 1.088-6.177 3.262m-6.487.66c0-.822.073-1.571.22-2.247.147-.676.485-1.403 1.015-2.182.53-.778 1.236-1.417 2.118-1.917 2.088-1.235 5.191-1.852 9.31-1.852v-1.455c0-1.674-1.147-2.512-3.441-2.512-1.618 0-3.192.352-4.721 1.057-.53.236-.84.353-.927.353-.442 0-.934-.455-1.48-1.366-.544-.91-.815-1.631-.815-2.16 0-.794.816-1.498 2.45-2.116 1.631-.617 3.624-.926 5.978-.926 6.324 0 9.487 2.455 9.487 7.362v8.287c0 1.822.088 3.35.265 4.584l.265 1.808c0 .47-.596.823-1.788 1.057-1.192.236-2.08.353-2.67.353-.587 0-.977-.059-1.167-.176-.192-.117-.347-.316-.464-.596a14.77 14.77 0 0 1-.265-.66c-.06-.162-.126-.448-.2-.86a7.831 7.831 0 0 0-.154-.75c-.529.941-1.442 1.735-2.735 2.381-1.294.646-2.544.97-3.75.97-2.266 0-3.92-.588-4.965-1.764-1.044-1.175-1.566-2.733-1.566-4.672" fill="#5B5B5E"/><path d="M214.107 42.91c-.956-.161-1.655-.39-2.096-.683-.442-.293-.662-.72-.662-1.278s.155-1.337.463-2.337c.309-.998.757-1.527 1.347-1.587.058 0 .344.06.86.177a7.178 7.178 0 0 0 1.61.176c1.324 0 2.273-.36 2.847-1.08.573-.72.86-1.887.86-3.505V13.267c0-.97.882-1.455 2.647-1.455h1.544c1.766 0 2.649.484 2.649 1.455v20.628c0 2.91-.766 5.18-2.295 6.81-1.53 1.632-3.882 2.447-7.06 2.447-.854 0-1.759-.081-2.714-.242M237.428 36.056c0 .588.191 1.058.574 1.41.381.353.955.53 1.72.53s1.515-.266 2.25-.794a4.84 4.84 0 0 0 1.633-1.984v-2.424c-4.119 0-6.177 1.088-6.177 3.262m-6.487.66c0-.822.073-1.571.22-2.247.147-.676.486-1.403 1.015-2.182.53-.778 1.236-1.417 2.118-1.917 2.089-1.235 5.192-1.852 9.311-1.852v-1.455c0-1.674-1.148-2.512-3.442-2.512-1.618 0-3.192.352-4.721 1.057-.53.236-.838.353-.927.353-.442 0-.934-.455-1.478-1.366-.545-.91-.816-1.631-.816-2.16 0-.794.816-1.498 2.448-2.116 1.633-.617 3.626-.926 5.98-.926 6.324 0 9.487 2.455 9.487 7.362v8.287c0 1.822.088 3.35.264 4.584l.266 1.808c0 .47-.596.823-1.787 1.057-1.192.236-2.082.353-2.671.353-.588 0-.978-.059-1.169-.176-.191-.117-.345-.316-.463-.596a14.77 14.77 0 0 1-.265-.66c-.06-.162-.126-.448-.199-.86a7.831 7.831 0 0 0-.154-.75c-.53.941-1.442 1.735-2.735 2.381-1.296.646-2.545.97-3.751.97-2.266 0-3.92-.588-4.965-1.764-1.044-1.175-1.566-2.733-1.566-4.672M264.654 37.995l1.19-.176c.383 0 .708.434.972 1.3.264.867.397 1.492.397 1.873 0 1.44-1.412 2.16-4.236 2.16-4.295 0-6.442-2.38-6.442-7.14V24.903h-.707c-.882 0-1.323-.734-1.323-2.203v-.75c0-1.47.44-2.204 1.323-2.204h.707l.574-4.187c.146-.94.94-1.411 2.382-1.411h1.368c1.47 0 2.206.47 2.206 1.41v4.188h2.162c.883 0 1.325.735 1.325 2.203v.75c0 1.47-.442 2.204-1.325 2.204h-2.162V36.1c0 1.265.53 1.896 1.589 1.896" fill="#42B0C7"/><g transform="translate(269.823 18.797)"><mask id="b" fill="#fff"><use xlink:href="#a"/></mask><path d="M6.877 12.476c0 4.481 1.36 6.722 4.082 6.722 2.72 0 4.081-2.24 4.081-6.722 0-4.48-1.361-6.722-4.081-6.722-2.722 0-4.082 2.241-4.082 6.722m-3.883 8.816C1.17 19.25.257 16.304.257 12.454c0-3.85.912-6.789 2.737-8.816C4.817 1.61 7.48.596 10.981.596c3.5 0 6.155 1.014 7.964 3.042 1.81 2.027 2.714 4.966 2.714 8.816 0 3.85-.905 6.796-2.714 8.838-1.81 2.042-4.464 3.063-7.964 3.063-3.502 0-6.164-1.021-7.987-3.063" fill="#42B0C7" mask="url(#b)"/></g><path d="M60.268 10.807L58.195 3.08a2.913 2.913 0 0 0-3.567-2.058L39.151 5.166a2.91 2.91 0 0 0-2.06 3.563l2.073 7.726-7.737 2.071a2.906 2.906 0 0 0-2.06 3.563l4.145 15.455A2.914 2.914 0 0 0 37.08 39.6l7.737-2.071 2.072 7.726a2.913 2.913 0 0 0 3.568 2.058l15.476-4.143a2.91 2.91 0 0 0 2.06-3.563L65.92 31.88l7.738-2.072a2.908 2.908 0 0 0 2.06-3.562l-4.145-15.455a2.914 2.914 0 0 0-3.568-2.057l-7.737 2.072z" fill="#E2474B"/><path d="M29.05 31.907c1.39 5.318-1.78 10.775-7.1 12.199-5.342 1.43-17.23 1.502-17.23 1.502s.564-1.635 1.495-3.992c-3.544-1.048-6.215-2-6.215-2s1.836-2.16 4.381-4.837c-1.987-1.576-3.293-2.71-3.293-2.71s10.332-5.875 15.674-7.305c5.34-1.43 10.84 1.743 12.271 7.08l.017.063z" fill="#43B7D1"/></g></svg>